<?xml version="1.0" encoding="UTF-8" standalone="no"?>
<!-- Created with Inkscape (http://www.inkscape.org/) -->

<svg
   xmlns:dc="http://purl.org/dc/elements/1.1/"
   xmlns:cc="http://creativecommons.org/ns#"
   xmlns:rdf="http://www.w3.org/1999/02/22-rdf-syntax-ns#"
   xmlns:svg="http://www.w3.org/2000/svg"
   xmlns="http://www.w3.org/2000/svg"
   xmlns:sodipodi="http://sodipodi.sourceforge.net/DTD/sodipodi-0.dtd"
   xmlns:inkscape="http://www.inkscape.org/namespaces/inkscape"
   width="210mm"
   height="210mm"
   viewBox="0 0 744.09449 744.09448"
   id="svg2"
   version="1.1"
   inkscape:version="0.91 r13725"
   sodipodi:docname="back.svg"
   inkscape:export-filename="/home/benjamin/Projects/NumNom/graphics/back.png"
   inkscape:export-xdpi="23.219999"
   inkscape:export-ydpi="23.219999">
  <defs
     id="defs4" />
  <sodipodi:namedview
     id="base"
     pagecolor="#ffffff"
     bordercolor="#666666"
     borderopacity="1.0"
     inkscape:pageopacity="0.0"
     inkscape:pageshadow="2"
     inkscape:zoom="0.49497475"
     inkscape:cx="588.51101"
     inkscape:cy="125.81334"
     inkscape:document-units="px"
     inkscape:current-layer="layer1"
     showgrid="false"
     inkscape:window-width="1855"
     inkscape:window-height="1056"
     inkscape:window-x="65"
     inkscape:window-y="24"
     inkscape:window-maximized="1" />
  <metadata
     id="metadata7">
    <rdf:RDF>
      <cc:Work
         rdf:about="">
        <dc:format>image/svg+xml</dc:format>
        <dc:type
           rdf:resource="http://purl.org/dc/dcmitype/StillImage" />
        <dc:title />
      </cc:Work>
    </rdf:RDF>
  </metadata>
  <g
     inkscape:label="Layer 1"
     inkscape:groupmode="layer"
     id="layer1"
     transform="translate(0,-308.26772)">
    <rect
       style="opacity:0.819;fill:#000000;fill-opacity:1;fill-rule:evenodd;stroke:#000000;stroke-width:26.31757355;stroke-linecap:round;stroke-linejoin:miter;stroke-miterlimit:4;stroke-dasharray:26.31757166, 26.31757166;stroke-dashoffset:0;stroke-opacity:0.20499998"
       id="rect4138"
       width="35.826572"
       height="579.09998"
       x="417.80099"
       y="435.46121" />
    <path
       style="fill:#e290b8;fill-opacity:1;fill-rule:evenodd;stroke:#000000;stroke-width:7.5;stroke-linecap:butt;stroke-linejoin:miter;stroke-opacity:1;stroke-miterlimit:4;stroke-dasharray:none"
       d="m 217.14286,466.64792 505.71428,0 -29.63095,110.58423 22.52748,84.07371 -495.75367,0 0,153.91349 L 18.028417,569.31735 219.50594,324.2711 Z"
       id="path4136"
       inkscape:connector-curvature="0"
       sodipodi:nodetypes="ccccccccc" />
    <path
       style="opacity:1;fill:#006700;fill-opacity:1;fill-rule:evenodd;stroke:none;stroke-width:11.26599979;stroke-linecap:round;stroke-linejoin:miter;stroke-miterlimit:4;stroke-dasharray:11.266, 11.266;stroke-dashoffset:0;stroke-opacity:0.20499998"
       id="path4140"
       d="m 408.99975,1031.7775 c -0.26652,-4.1384 -0.2197,-8.3868 -0.7715,-12.409 -0.55747,-2.9998 -0.8903,-6.1518 -1.30432,-9.2514 -0.54539,-2.6716 -1.37221,-5.1515 -2.27969,-7.2973 -1.01047,-2.2371 -2.04595,-4.41426 -2.88439,-6.98123 -0.85508,-2.9234 -1.83004,-5.64396 -2.79116,-8.39651 -0.72048,-1.82544 -1.35701,-3.68456 -2.12223,-5.41458 -0.92226,-1.73472 -1.84987,-3.21808 -3.00305,-4.10326 -1.30482,-0.65038 -2.61493,-0.77371 -3.91375,-1.48582 -1.10395,-0.71403 -2.12501,-1.71796 -3.27743,-2.11412 -1.35028,-0.78513 -2.66609,-1.80584 -4.01865,-2.57137 -1.61041,-0.45005 -3.19694,-1.15498 -4.80173,-1.70281 -2.0758,-0.58952 -4.1713,-0.67349 -6.26139,-0.73404 -1.70661,-0.0304 -3.41329,-0.006 -5.11991,0.007 -1.56838,0.0111 -3.13675,-0.002 -4.70515,0.003 -1.66532,-0.10904 -3.34855,0.30349 -4.94874,1.33138 -1.61714,0.82094 -3.24088,1.24869 -4.83168,2.27364 -0.86295,0.45203 -0.42977,0.25445 -1.29948,0.59351 0,0 8.37181,-13.9025 8.37181,-13.9025 l 0,0 c 0.83564,-0.43771 0.41669,-0.20732 1.25676,-0.69188 1.59722,-0.86081 3.24744,-1.18112 4.83247,-2.18232 1.68426,-0.67211 3.38049,-1.08233 5.09603,-0.91026 1.57116,0.001 3.14225,-0.0169 4.7134,-0.0179 1.69651,0.004 3.39316,0.0147 5.0893,0.10171 2.1284,0.12351 4.26345,0.24457 6.3713,0.96312 1.63137,0.6131 3.27815,1.05315 4.88993,1.86909 1.32452,0.85387 2.64308,1.76059 3.99335,2.40659 1.12275,0.58934 2.16336,1.668 3.29499,2.17453 1.33155,0.62333 2.72495,0.61942 3.99634,1.80644 1.20696,1.21824 2.28185,2.88785 3.26076,4.85744 0.80467,1.77797 1.41604,3.81379 2.16595,5.69628 0.95528,2.78319 1.88014,5.60768 2.80267,8.44217 0.82759,2.47448 1.8547,4.5741 2.81849,6.7889 0.9802,2.47009 1.92712,5.16209 2.51695,8.18115 0.41102,3.09165 0.73645,6.23415 1.2763,9.23785 0.60421,4.123 0.5322,8.4491 0.88849,12.6888 0,0 -9.30104,10.7445 -9.30104,10.7445 z"
       inkscape:connector-curvature="0" />
    <path
       style="opacity:1;fill:#006700;fill-opacity:1;fill-rule:evenodd;stroke:none;stroke-width:11.26599979;stroke-linecap:round;stroke-linejoin:miter;stroke-miterlimit:4;stroke-dasharray:11.266, 11.266;stroke-dashoffset:0;stroke-opacity:0.20499998"
       id="path4140-6"
       d="m 425.78144,1029.6686 c -0.26653,-5.6624 -0.2197,-11.4755 -0.7715,-16.9788 -0.55747,-4.1046 -0.8903,-8.4173 -1.30433,-12.6583 -0.54539,-3.65551 -1.3722,-7.04871 -2.27968,-9.9848 -1.01048,-3.06087 -2.04595,-6.03983 -2.8844,-9.55213 -0.85507,-4.00001 -1.83003,-7.72246 -2.79116,-11.48869 -0.72047,-2.49769 -1.357,-5.04146 -2.12222,-7.4086 -0.92226,-2.37356 -1.84987,-4.40319 -3.00305,-5.61435 -1.30482,-0.8899 -2.61494,-1.05865 -3.91375,-2.03301 -1.10396,-0.97699 -2.12501,-2.35063 -3.27744,-2.89268 -1.35027,-1.07428 -2.66608,-2.47088 -4.01864,-3.51833 -1.61041,-0.61579 -3.19694,-1.58032 -4.80173,-2.3299 -2.0758,-0.80662 -4.1713,-0.9215 -6.26139,-1.00436 -1.70661,-0.0416 -3.41329,-0.009 -5.11991,0.009 -1.56839,0.0153 -3.13675,-0.003 -4.70515,0.003 -1.66532,-0.1492 -3.34855,0.41526 -4.94875,1.82168 -1.61713,1.12327 -3.24088,1.70856 -4.83168,3.11096 -0.86294,0.6185 -0.42976,0.34815 -1.29947,0.81208 0,0 8.3718,-19.02235 8.3718,-19.02235 l 0,0 c 0.83565,-0.59891 0.4167,-0.28367 1.25676,-0.94668 1.59723,-1.17781 3.24744,-1.61609 4.83247,-2.986 1.68427,-0.91963 3.3805,-1.48092 5.09604,-1.24549 1.57115,0.002 3.14225,-0.0231 4.71339,-0.0245 1.69652,0.005 3.39317,0.0201 5.08931,0.13917 2.1284,0.16899 4.26345,0.33463 6.3713,1.31782 1.63137,0.83888 3.27814,1.44098 4.88993,2.5574 1.32451,1.16832 2.64308,2.40896 3.99335,3.29287 1.12274,0.80638 2.16336,2.28227 3.29499,2.97533 1.33154,0.8529 2.72495,0.84754 3.99634,2.4717 1.20695,1.66688 2.28185,3.95135 3.26076,6.64628 0.80467,2.43274 1.41604,5.21828 2.16595,7.79405 0.95528,3.80815 1.88014,7.67281 2.80266,11.55114 0.8276,3.38576 1.85471,6.2586 2.8185,9.28905 0.9802,3.37975 1.92712,7.06311 2.51694,11.19401 0.41102,4.23015 0.73645,8.52998 1.2763,12.63979 0.60422,5.64132 0.53221,11.56062 0.8885,17.36162 0,0 -9.30104,14.7014 -9.30104,14.7014 z"
       inkscape:connector-curvature="0" />
    <path
       style="opacity:1;fill:#006700;fill-opacity:1;fill-rule:evenodd;stroke:none;stroke-width:11.26599979;stroke-linecap:round;stroke-linejoin:miter;stroke-miterlimit:4;stroke-dasharray:11.266, 11.266;stroke-dashoffset:0;stroke-opacity:0.20499998"
       id="path4140-62"
       d="m 470.76776,1034.6863 c 0.26652,-4.1384 0.2197,-8.3868 0.7715,-12.409 0.55747,-2.9998 0.8903,-6.1518 1.30432,-9.2514 0.54539,-2.6716 1.37221,-5.1515 2.27969,-7.2973 1.01047,-2.2371 2.04595,-4.4143 2.88439,-6.98123 0.85508,-2.92341 1.83004,-5.64396 2.79116,-8.39651 0.72048,-1.82544 1.35701,-3.68456 2.12223,-5.41458 0.92226,-1.73472 1.84987,-3.21808 3.00305,-4.10326 1.30482,-0.65038 2.61493,-0.77371 3.91375,-1.48582 1.10395,-0.71403 2.12501,-1.71796 3.27743,-2.11412 1.35028,-0.78513 2.66609,-1.80584 4.01865,-2.57137 1.61041,-0.45005 3.19694,-1.15498 4.80173,-1.70281 2.0758,-0.58952 4.1713,-0.67349 6.26139,-0.73404 1.70661,-0.0304 3.41329,-0.006 5.11991,0.007 1.56838,0.0111 3.13675,-0.002 4.70515,0.003 1.66532,-0.10904 3.34855,0.30349 4.94874,1.33138 1.61714,0.82094 3.24088,1.24869 4.83168,2.27364 0.86295,0.45203 0.42977,0.25445 1.29948,0.59351 0,0 -8.37181,-13.9025 -8.37181,-13.9025 l 0,0 c -0.83564,-0.43771 -0.41669,-0.20732 -1.25676,-0.69188 -1.59722,-0.86081 -3.24744,-1.18112 -4.83247,-2.18232 -1.68426,-0.67211 -3.38049,-1.08233 -5.09603,-0.91026 -1.57116,10e-4 -3.14225,-0.0169 -4.7134,-0.0179 -1.69651,0.004 -3.39316,0.0147 -5.0893,0.10171 -2.1284,0.12351 -4.26345,0.24457 -6.3713,0.96312 -1.63137,0.6131 -3.27815,1.05315 -4.88993,1.86909 -1.32452,0.85387 -2.64308,1.76059 -3.99335,2.40659 -1.12275,0.58934 -2.16336,1.668 -3.29499,2.17453 -1.33155,0.62333 -2.72495,0.61942 -3.99634,1.80644 -1.20696,1.21824 -2.28185,2.88785 -3.26076,4.85744 -0.80467,1.77797 -1.41604,3.81379 -2.16595,5.69628 -0.95528,2.78319 -1.88014,5.60768 -2.80267,8.44217 -0.82759,2.47448 -1.8547,4.5741 -2.81849,6.7889 -0.9802,2.47009 -1.92712,5.16209 -2.51695,8.1812 -0.41102,3.0916 -0.73645,6.2341 -1.2763,9.2378 -0.60421,4.123 -0.5322,8.4491 -0.88849,12.6888 0,0 9.30104,10.7445 9.30104,10.7445 z"
       inkscape:connector-curvature="0" />
    <path
       style="opacity:1;fill:#006700;fill-opacity:1;fill-rule:evenodd;stroke:none;stroke-width:11.26599979;stroke-linecap:round;stroke-linejoin:miter;stroke-miterlimit:4;stroke-dasharray:11.266, 11.266;stroke-dashoffset:0;stroke-opacity:0.20499998"
       id="path4140-6-2"
       d="m 453.98607,1032.5774 c 0.26653,-5.6624 0.2197,-11.4755 0.7715,-16.9788 0.55747,-4.1046 0.8903,-8.4173 1.30433,-12.6583 0.54539,-3.65551 1.3722,-7.04871 2.27968,-9.98481 1.01048,-3.06086 2.04595,-6.03982 2.8844,-9.55212 0.85507,-4.00001 1.83003,-7.72246 2.79116,-11.48869 0.72047,-2.49769 1.357,-5.04146 2.12222,-7.4086 0.92226,-2.37356 1.84987,-4.40319 3.00305,-5.61435 1.30482,-0.8899 2.61494,-1.05865 3.91375,-2.03301 1.10396,-0.97699 2.12501,-2.35063 3.27744,-2.89268 1.35027,-1.07428 2.66608,-2.47088 4.01864,-3.51833 1.61041,-0.61579 3.19694,-1.58032 4.80173,-2.3299 2.0758,-0.80662 4.1713,-0.9215 6.26139,-1.00436 1.70661,-0.0416 3.41329,-0.009 5.11991,0.009 1.56839,0.0153 3.13675,-0.003 4.70515,0.003 1.66532,-0.1492 3.34855,0.41526 4.94875,1.82168 1.61713,1.12327 3.24088,1.70856 4.83168,3.11096 0.86294,0.6185 0.42976,0.34815 1.29947,0.81208 0,0 -8.3718,-19.02236 -8.3718,-19.02236 l 0,0 c -0.83565,-0.59891 -0.4167,-0.28367 -1.25676,-0.94668 -1.59723,-1.17781 -3.24744,-1.61609 -4.83247,-2.986 -1.68427,-0.91963 -3.3805,-1.48092 -5.09604,-1.24549 -1.57115,0.002 -3.14225,-0.0231 -4.71339,-0.0245 -1.69652,0.005 -3.39317,0.0201 -5.08931,0.13917 -2.1284,0.16899 -4.26345,0.33463 -6.3713,1.31782 -1.63137,0.83888 -3.27814,1.44098 -4.88993,2.5574 -1.32451,1.16832 -2.64308,2.40896 -3.99335,3.29287 -1.12274,0.80638 -2.16336,2.28227 -3.29499,2.97534 -1.33154,0.8529 -2.72495,0.84754 -3.99634,2.4717 -1.20695,1.66688 -2.28185,3.95135 -3.26076,6.64628 -0.80467,2.43274 -1.41604,5.21828 -2.16595,7.79405 -0.95528,3.80815 -1.88014,7.67281 -2.80266,11.55114 -0.8276,3.38576 -1.85471,6.2586 -2.8185,9.28905 -0.9802,3.37975 -1.92712,7.06311 -2.51694,11.19401 -0.41102,4.23015 -0.73645,8.52998 -1.2763,12.63983 -0.60422,5.6413 -0.53221,11.5606 -0.8885,17.3616 0,0 9.30104,14.7014 9.30104,14.7014 z"
       inkscape:connector-curvature="0" />
    <path
       style="fill:#ffffff;fill-opacity:1;fill-rule:evenodd;stroke:#000000;stroke-width:6.92141628;stroke-linecap:butt;stroke-linejoin:miter;stroke-miterlimit:4;stroke-dasharray:3.46070827, 3.46070827;stroke-dashoffset:0;stroke-opacity:1"
       d="m 206.84707,478.23884 501.60826,0 -28.79847,96.91273 21.89458,73.67971 -491.92749,0 2.02031,136.90552 L 31.509304,570.2356 209.14378,353.46402 Z"
       id="path4136-6"
       inkscape:connector-curvature="0"
       sodipodi:nodetypes="ccccccccc" />
    <flowRoot
       xml:space="preserve"
       id="flowRoot4198"
       style="font-style:normal;font-variant:normal;font-weight:normal;font-stretch:normal;font-size:169.09843445px;line-height:125%;font-family:Ubuntu;-inkscape-font-specification:Ubuntu;text-align:center;letter-spacing:0px;word-spacing:0px;text-anchor:middle;fill:#e770ff;fill-opacity:1;stroke:#000000;stroke-width:8.9;stroke-linecap:butt;stroke-linejoin:miter;stroke-opacity:1;stroke-miterlimit:4;stroke-dasharray:2.225,2.225;stroke-dashoffset:0"
       transform="translate(64.649763,0)"><flowRegion
         id="flowRegion4200"><rect
           id="rect4202"
           width="520.98651"
           height="230.60046"
           x="92.94046"
           y="449.33072"
           style="font-style:normal;font-variant:normal;font-weight:normal;font-stretch:normal;font-family:Ubuntu;-inkscape-font-specification:Ubuntu;text-align:center;text-anchor:middle;stroke-width:8.9;stroke-miterlimit:4;stroke-dasharray:2.225,2.225;stroke:#000000;stroke-opacity:1;stroke-dashoffset:0;fill:#e770ff;fill-opacity:1" /></flowRegion><flowPara
         id="flowPara4204">BACK</flowPara></flowRoot>  </g>
</svg>
