<?xml version="1.0" encoding="UTF-8" standalone="no"?>
<!-- Created with Inkscape (http://www.inkscape.org/) -->

<svg
   xmlns:dc="http://purl.org/dc/elements/1.1/"
   xmlns:cc="http://creativecommons.org/ns#"
   xmlns:rdf="http://www.w3.org/1999/02/22-rdf-syntax-ns#"
   xmlns:svg="http://www.w3.org/2000/svg"
   xmlns="http://www.w3.org/2000/svg"
   xmlns:sodipodi="http://sodipodi.sourceforge.net/DTD/sodipodi-0.dtd"
   xmlns:inkscape="http://www.inkscape.org/namespaces/inkscape"
   width="210mm"
   height="210mm"
   viewBox="0 0 744.09449 744.09448"
   id="svg2"
   version="1.1"
   inkscape:version="0.91 r13725"
   sodipodi:docname="Cookie.svg"
   inkscape:export-filename="/home/benjamin/Projects/NumNom/graphics/cookie.png"
   inkscape:export-xdpi="90"
   inkscape:export-ydpi="90">
  <defs
     id="defs4" />
  <sodipodi:namedview
     id="base"
     pagecolor="#ffffff"
     bordercolor="#666666"
     borderopacity="1.0"
     inkscape:pageopacity="0.0"
     inkscape:pageshadow="2"
     inkscape:zoom="0.77319712"
     inkscape:cx="-96.080667"
     inkscape:cy="506.9046"
     inkscape:document-units="px"
     inkscape:current-layer="layer2"
     showgrid="true"
     inkscape:window-width="1855"
     inkscape:window-height="1056"
     inkscape:window-x="65"
     inkscape:window-y="24"
     inkscape:window-maximized="1">
    <inkscape:grid
       type="xygrid"
       id="grid4138" />
  </sodipodi:namedview>
  <metadata
     id="metadata7">
    <rdf:RDF>
      <cc:Work
         rdf:about="">
        <dc:format>image/svg+xml</dc:format>
        <dc:type
           rdf:resource="http://purl.org/dc/dcmitype/StillImage" />
        <dc:title />
      </cc:Work>
    </rdf:RDF>
  </metadata>
  <g
     inkscape:label="Layer 1"
     inkscape:groupmode="layer"
     id="layer1"
     transform="translate(0,-308.26772)">
    <path
       style="opacity:0.919;fill:#ffffff;fill-opacity:0;stroke:#000000;stroke-width:5.19881773;stroke-linecap:round;stroke-linejoin:miter;stroke-miterlimit:4;stroke-dasharray:none;stroke-opacity:1"
       d="M 155.4725,875.14603 C 130.03102,845.94672 108.90004,808.28511 98.027078,772.76149 91.753086,752.26332 90.93591,754.38236 88.203325,736.56939 l -1.133429,-20.5979 3.106585,-13.9315 c 1.930656,-8.65808 5.017851,-2.13842 4.043937,-16.33062 -0.519647,-7.57237 5.843952,-7.52096 0.375991,-12.89509 -3.917517,-3.85032 2.284477,-18.18481 -3.118081,-19.916 -3.488744,-1.11793 -3.361646,-7.39415 -3.545813,-7.57187 -0.454737,-0.4388 3.133107,-19.60242 5.326174,-28.44841 6.389398,-25.7726 17.238191,-52.2865 30.995851,-75.75235 5.58169,-9.52044 6.55268,-10.79605 8.3291,-10.94204 3.98514,-0.32747 21.68583,-20.76801 28.98592,-25.18721 28.14774,-17.03964 32.59312,-27.59546 60.13942,-53.94721 3.83702,-3.67061 15.41634,-18.08695 23.21636,-21.94853 24.35493,-12.05757 52.54705,-21.04942 79.67002,-25.41068 l 12.00203,-1.92989 11.28175,-0.0364 c 10.39407,-0.0336 10.50987,3.55868 17.77123,5.84361 11.01871,3.46726 8.57584,4.88201 15.33183,-0.81289 3.13773,-2.64492 11.26018,6.52579 13.7969,-0.6858 l 5.10192,-3.09196 5.71207,-1.17236 c 54.00366,-11.08386 105.75799,28.41587 149.47232,64.42812 16.29473,13.42369 13.74976,16.08195 19.62853,22.72656 25.9382,29.31719 25.61679,68.27665 49.09182,93.53415 11.31645,12.17576 20.6611,19.64073 23.19758,25.46905 1.47709,3.39401 2.07754,6.12204 4.05641,15.00137 1.11242,4.99138 2.58989,12.39106 3.28339,16.44377 l 1.26083,7.36854 -0.77465,8.95863 c -1.02905,11.90054 4.87108,9.60694 -4.64019,30.5346 -3.48162,7.6606 6.90537,7.50552 7.04206,15.95636 l 0.12901,7.97451 -1.42762,11.81891 c -5.69639,47.15775 -23.86131,93.26324 -52.24993,132.61839 -6.30997,8.74746 -7.17228,9.68234 -8.65982,9.38817 -0.90862,-0.17968 -11.79668,11.63833 -13.59188,11.30023 -15.37874,-2.89638 -8.82009,8.85092 -24.64461,22.72923 -4.25719,3.73359 -9.08993,12.62063 -14.48202,16.73969 -1.49417,1.14142 -5.35065,6.95868 -14.8227,13.39156 -21.33494,14.48965 -40.32563,21.8527 -63.77484,29.66417 -10.18574,3.39309 -12.48062,2.23418 -13.77367,2.8245 -10.58429,4.83197 -11.38082,-3.05259 -19.89378,-5.93837 -6.98121,-2.36654 -20.86002,-2.12372 -27.73653,0.48416 -10.65783,4.04202 -2.09264,9.61575 -19.27482,10.16791 l -8.71385,4.57932 -5.61437,2.93831 c -56.27805,29.45347 -128.89855,-23.44978 -179.3892,-65.02359 -10.40406,-8.56665 -25.4443,-23.12588 -33.81812,-32.73643 l 2e-5,-4e-5 z"
       id="path4156-4"
       inkscape:connector-curvature="0"
       sodipodi:nodetypes="csscsscssssssssscsssscssssssscssscsssssssssssccssccc" />
    <path
       style="opacity:1;fill:#f1fbbb;fill-opacity:1;stroke:#000000;stroke-width:7.37198782;stroke-linecap:round;stroke-linejoin:miter;stroke-miterlimit:4;stroke-dasharray:none;stroke-opacity:1"
       d="m 321.01866,1001.8885 c -28.31389,-4.49778 -54.85767,-12.10963 -79.70418,-22.8565 -14.9099,-6.44899 -45.45224,-22.53443 -52.21561,-27.49992 -16.90761,-12.41308 -38.76788,-28.058 -37.64023,-39.55996 -5.54447,-11.40269 -37.9253,-13.14326 -37.29422,-41.24903 C 93.533344,858.82886 93.322181,822.5017 81.289059,788.99189 74.277826,769.46702 67.276371,765.08538 67.12004,758.5986 c -0.07714,-3.20099 -5.825635,-19.2383 -4.870735,-24.57329 1.329275,-7.42661 -1.107607,-19.03609 -1.947586,-36.85994 -1.88852,-40.07329 -1.446296,-51.11486 2.69355,-67.25323 2.813253,-10.9669 3.84801,-18.67174 4.516044,-33.62661 0.797261,-17.8478 1.203123,-20.22779 5.07272,-29.74662 9.941868,-24.45601 21.535858,-57.44429 36.924317,-78.05255 11.9866,-16.05248 32.02634,-23.80527 40.89246,-26.70708 14.77251,-25.53709 31.51938,-39.23641 50.48718,-58.65538 26.45598,-26.01346 68.95973,-24.41219 142.28977,-30.11071 18.15479,-1.41082 21.92558,-1.34846 31.87249,0.5271 6.2049,1.16997 16.74481,2.46878 23.42202,2.88624 32.99863,2.06309 58.01107,8.96186 119.73775,33.02529 28.69251,11.18544 60.84597,37.5835 69.85397,57.35028 4.59323,10.07915 5.87744,11.14362 13.44405,11.14362 5.69939,0 10.81579,4.77393 23.18792,21.63586 26.42186,36.01027 44.9453,78.866 53.97072,124.86639 2.89961,14.77864 3.23409,18.95051 2.46009,30.68413 -0.82267,12.47116 -1.19899,13.92686 -4.60891,17.82831 -4.22784,4.83728 -4.48877,7.35052 -1.70735,16.44497 2.31609,7.57293 3.8539,29.30641 3.42318,48.3791 -0.45648,20.21428 -6.50711,41.2653 -20.35724,70.82581 -7.11091,15.17689 -7.30939,15.4385 -24.3672,32.11485 -17.34354,16.95569 -24.06636,26.1349 -26.04883,35.56661 -0.67066,3.19066 -3.20078,6.62607 -8.57266,11.63998 -6.72522,6.27707 -8.13999,8.51375 -12.03431,19.0257 -5.67005,15.30514 -9.76557,22.18811 -19.20975,32.28396 -23.60255,25.2312 -64.16286,40.40306 -132.81189,49.67918 -29.15319,3.93929 -92.95656,16.28103 -113.81315,12.96793 z m 33.62661,-20.12655 c 3.91233,-1.03603 12.35132,-4.48594 18.75331,-7.66646 6.40199,-3.18052 13.66486,-6.12966 16.1397,-6.55361 2.74086,-0.46953 6.42991,-2.65609 9.43773,-5.59388 l 4.93801,-4.82305 12.64554,0 c 11.63044,0 13.00118,0.27057 17.07557,3.37056 6.26,4.76293 9.4198,5.45587 17.0964,3.74924 22.89711,-5.09038 56.97542,-19.29726 75.39183,-31.43004 12.09096,-7.96557 36.57326,-34.078 43.8999,-46.82298 4.39397,-7.64346 5.55218,-8.63715 9.10057,-7.80789 5.81067,1.35796 21.59435,-13.09975 33.01314,-30.23978 26.32775,-39.51891 45.18647,-93.20292 47.32365,-134.71344 l 0.77098,-14.9747 -3.90221,-4.36734 -3.90221,-4.36733 2.99786,-7.96462 c 5.28427,-14.03901 3.52363,-44.7934 -4.01825,-70.18964 -1.66503,-5.60677 -4.38803,-9.23571 -16.66791,-22.21326 -16.55251,-17.49293 -21.03302,-24.9501 -31.07201,-51.71477 -8.89825,-23.7234 -14.83994,-35.179 -26.49714,-51.08659 -11.2952,-15.4136 -18.23158,-21.91126 -45.33807,-42.47051 -38.05541,-28.86357 -65.91417,-42.38494 -95.38319,-46.29461 -17.83088,-2.36564 -40.75333,1.22298 -44.46033,6.96048 -0.50945,0.78851 -2.51007,0.63968 -5.38742,-0.40078 -3.98398,-1.44062 -5.02591,-1.36095 -8.0414,0.61487 -3.96759,2.59967 -6.89594,2.1537 -16.88373,-2.57128 -5.50902,-2.60619 -8.62854,-3.13803 -18.40611,-3.13803 -21.25204,0 -56.14201,8.45107 -85.62405,20.73991 l -16.16664,6.73866 -31.68662,31.91059 c -23.75869,23.92663 -34.43712,33.72564 -42.67993,39.16505 -6.04632,3.98997 -16.23131,12.15009 -22.6333,18.13362 -6.40199,5.98352 -12.64213,11.25198 -13.86699,11.70769 -3.1165,1.15949 -8.65068,10.27064 -19.03061,31.33089 -10.48158,21.26653 -17.880707,41.93756 -22.69525,63.40407 -4.465171,19.90875 -4.726602,27.97204 -1.035477,31.93713 2.239835,2.40608 2.71189,4.41549 2.552675,10.86599 -0.120034,4.86325 0.453036,8.69526 1.486618,9.94065 1.246718,1.5022 1.324058,2.69536 0.298876,4.61094 -0.760695,1.42137 -1.383081,5.26204 -1.383081,8.53482 0,3.27279 -0.815132,7.23954 -1.811405,8.81501 -4.73735,7.4915 -6.075999,30.36855 -2.726021,46.58683 3.322208,16.08384 14.726525,48.69474 23.154505,66.21083 25.1269,52.22188 56.89269,87.86447 115.81627,129.95086 52.31477,37.36603 94.95886,51.24805 129.40622,42.1259 z"
       id="path4695"
       inkscape:connector-curvature="0"
       sodipodi:nodetypes="sssccssssssssccsssssssssssssssssssssssscsssssssscccssssssssssssscssssssssssssssss" />
  </g>
  <g
     inkscape:groupmode="layer"
     id="layer2"
     inkscape:label="Layer 2"
     style="display:none">
    <path
       transform="translate(0,-308.26772)"
       style="opacity:1;fill:#fffbff;fill-opacity:1;stroke:#ffffff;stroke-width:7.37198782;stroke-linecap:round;stroke-linejoin:miter;stroke-miterlimit:4;stroke-dasharray:none;stroke-opacity:1"
       d="m 1.5658416,680.35206 0,-366.65941 370.5394084,0 370.5394,0 0,366.65941 0,366.65944 -370.5394,0 -370.5394084,0 0,-366.65944 z M 365.83766,1002.4419 c 40.94776,-5.42626 109.32392,-16.73902 124.6074,-20.61622 57.64288,-14.62336 86.51479,-35.39726 100.89647,-72.59696 3.51438,-9.0904 5.96514,-13.1025 11.83897,-19.3817 4.9046,-5.243 8.33601,-10.4008 10.15636,-15.2661 3.38161,-9.0382 9.27371,-16.6085 27.89746,-35.84326 15.6893,-16.20406 19.27922,-22.00111 29.60462,-47.80577 6.94533,-17.35739 10.72389,-31.54482 12.07064,-45.32178 1.35682,-13.88015 -0.2591,-48.56494 -2.74894,-59.00421 -1.88418,-7.89981 -1.8711,-8.01564 1.4287,-12.65337 5.54521,-7.79356 6.9162,-26.51218 3.40995,-46.55756 -9.05132,-51.74698 -31.15852,-101.23294 -63.18698,-141.44111 -7.30918,-9.17589 -12.86504,-13.17211 -18.35342,-13.20126 -5.10935,-0.0272 -5.92463,-0.77629 -10.72712,-9.85677 -9.17378,-17.3457 -27.88299,-34.93985 -52.49346,-49.36487 -11.25243,-6.59544 -35.20883,-16.14034 -67.25322,-26.79558 -28.78753,-9.57228 -42.64261,-12.73584 -67.30195,-15.36721 -9.93185,-1.05981 -23.67092,-2.64937 -30.53127,-3.53235 -10.83872,-1.39504 -18.04202,-1.22455 -54.96658,1.30099 -72.21969,4.93961 -91.67684,8.71329 -110.9765,21.52368 -13.12802,8.71388 -58.90985,58.43131 -58.90985,63.974 0,0.57092 -6.24887,4.09021 -13.8864,7.8206 -27.38017,13.37333 -39.357954,30.91419 -62.941028,92.17385 -7.10726,18.46191 -7.35056,19.51748 -8.62975,37.44037 -0.72397,10.14357 -2.72295,25.42685 -4.44219,33.96284 -4.37409,21.71726 -4.94957,32.52533 -3.27104,61.43324 3.62413,62.41552 4.91146,70.79916 12.8463,83.66095 5.64884,9.15635 10.78183,23.73056 16.8795,47.92633 2.8247,11.20853 6.32687,23.82415 7.78259,28.03475 3.001314,8.6811 9.299308,19.1011 13.580308,22.4685 1.62169,1.2756 3.30231,4.4998 3.84027,7.3674 2.06997,11.0339 7.56416,17.0408 24.98479,27.3164 9.71168,5.7285 11.96332,7.6306 11.96332,10.1064 0,5.4621 8.34795,15.3904 22.74499,27.051 28.96274,23.4577 74.60542,45.54616 116.28812,56.27682 32.90102,8.47006 44.49809,9.18076 77.79894,4.76796 z"
       id="path4699"
       inkscape:connector-curvature="0" />
  </g>
</svg>
