<?xml version="1.0" encoding="UTF-8" standalone="no"?>
<!-- Created with Inkscape (http://www.inkscape.org/) -->

<svg
   xmlns:dc="http://purl.org/dc/elements/1.1/"
   xmlns:cc="http://creativecommons.org/ns#"
   xmlns:rdf="http://www.w3.org/1999/02/22-rdf-syntax-ns#"
   xmlns:svg="http://www.w3.org/2000/svg"
   xmlns="http://www.w3.org/2000/svg"
   xmlns:xlink="http://www.w3.org/1999/xlink"
   xmlns:sodipodi="http://sodipodi.sourceforge.net/DTD/sodipodi-0.dtd"
   xmlns:inkscape="http://www.inkscape.org/namespaces/inkscape"
   width="210mm"
   height="210mm"
   viewBox="0 0 744.09449 744.09448"
   id="svg2"
   version="1.1"
   inkscape:version="0.91 r13725"
   sodipodi:docname="NomNum-title.svg"
   inkscape:export-filename="/home/benjamin/Projects/NumNom/graphics/Title.png"
   inkscape:export-xdpi="90"
   inkscape:export-ydpi="90">
  <defs
     id="defs4">
    <linearGradient
       inkscape:collect="always"
       id="linearGradient4973">
      <stop
         style="stop-color:#ffffff;stop-opacity:1;"
         offset="0"
         id="stop4975" />
      <stop
         style="stop-color:#ffffff;stop-opacity:0;"
         offset="1"
         id="stop4977" />
    </linearGradient>
    <linearGradient
       inkscape:collect="always"
       xlink:href="#linearGradient4973"
       id="linearGradient4979"
       x1="139.34532"
       y1="387.92045"
       x2="253.74819"
       y2="387.92045"
       gradientUnits="userSpaceOnUse" />
    <linearGradient
       inkscape:collect="always"
       xlink:href="#linearGradient4973"
       id="linearGradient4981"
       x1="-66.477886"
       y1="405.36799"
       x2="5.4524812"
       y2="405.36799"
       gradientUnits="userSpaceOnUse" />
    <linearGradient
       inkscape:collect="always"
       xlink:href="#linearGradient4973"
       id="linearGradient4983"
       x1="-169.74974"
       y1="376.32868"
       x2="-90.682317"
       y2="376.32868"
       gradientUnits="userSpaceOnUse" />
    <linearGradient
       inkscape:collect="always"
       xlink:href="#linearGradient4973"
       id="linearGradient4985"
       x1="-150.9654"
       y1="604.15489"
       x2="-71.897969"
       y2="604.15489"
       gradientUnits="userSpaceOnUse" />
    <linearGradient
       inkscape:collect="always"
       xlink:href="#linearGradient4973"
       id="linearGradient4987"
       x1="-33.420852"
       y1="626.04285"
       x2="32.212109"
       y2="626.04285"
       gradientUnits="userSpaceOnUse" />
    <linearGradient
       inkscape:collect="always"
       xlink:href="#linearGradient4973"
       id="linearGradient4989"
       x1="245.11837"
       y1="583.96583"
       x2="359.52124"
       y2="583.96583"
       gradientUnits="userSpaceOnUse" />
  </defs>
  <sodipodi:namedview
     id="base"
     pagecolor="#ffffff"
     bordercolor="#666666"
     borderopacity="1.0"
     inkscape:pageopacity="0.0"
     inkscape:pageshadow="2"
     inkscape:zoom="0.69894835"
     inkscape:cx="355.22428"
     inkscape:cy="397.35279"
     inkscape:document-units="px"
     inkscape:current-layer="layer3"
     showgrid="true"
     inkscape:window-width="1855"
     inkscape:window-height="1056"
     inkscape:window-x="65"
     inkscape:window-y="24"
     inkscape:window-maximized="1">
    <inkscape:grid
       type="xygrid"
       id="grid4138" />
  </sodipodi:namedview>
  <metadata
     id="metadata7">
    <rdf:RDF>
      <cc:Work
         rdf:about="">
        <dc:format>image/svg+xml</dc:format>
        <dc:type
           rdf:resource="http://purl.org/dc/dcmitype/StillImage" />
        <dc:title></dc:title>
      </cc:Work>
    </rdf:RDF>
  </metadata>
  <g
     inkscape:label="Layer 1"
     inkscape:groupmode="layer"
     id="layer1"
     transform="translate(0,-308.26772)">
    <path
       style="opacity:0.919;fill:#ffffff;fill-opacity:0;stroke:#000000;stroke-width:5.19881773;stroke-linecap:round;stroke-linejoin:miter;stroke-miterlimit:4;stroke-dasharray:none;stroke-opacity:1"
       d="M 155.4725,875.14603 C 130.03102,845.94672 108.90004,808.28511 98.027078,772.76149 91.753086,752.26332 90.93591,754.38236 88.203325,736.56939 l -1.133429,-20.5979 3.106585,-13.9315 c 1.930656,-8.65808 5.017851,-2.13842 4.043937,-16.33062 -0.519647,-7.57237 5.843952,-7.52096 0.375991,-12.89509 -3.917517,-3.85032 2.284477,-18.18481 -3.118081,-19.916 -3.488744,-1.11793 -3.361646,-7.39415 -3.545813,-7.57187 -0.454737,-0.4388 3.133107,-19.60242 5.326174,-28.44841 6.389398,-25.7726 17.238191,-52.2865 30.995851,-75.75235 5.58169,-9.52044 6.55268,-10.79605 8.3291,-10.94204 3.98514,-0.32747 21.68583,-20.76801 28.98592,-25.18721 28.14774,-17.03964 32.59312,-27.59546 60.13942,-53.94721 3.83702,-3.67061 15.41634,-18.08695 23.21636,-21.94853 24.35493,-12.05757 52.54705,-21.04942 79.67002,-25.41068 l 12.00203,-1.92989 11.28175,-0.0364 c 10.39407,-0.0336 10.50987,3.55868 17.77123,5.84361 11.01871,3.46726 8.57584,4.88201 15.33183,-0.81289 3.13773,-2.64492 11.26018,6.52579 13.7969,-0.6858 l 5.10192,-3.09196 5.71207,-1.17236 c 54.00366,-11.08386 105.75799,28.41587 149.47232,64.42812 16.29473,13.42369 13.74976,16.08195 19.62853,22.72656 25.9382,29.31719 25.61679,68.27665 49.09182,93.53415 11.31645,12.17576 20.6611,19.64073 23.19758,25.46905 1.47709,3.39401 2.07754,6.12204 4.05641,15.00137 1.11242,4.99138 2.58989,12.39106 3.28339,16.44377 l 1.26083,7.36854 -0.77465,8.95863 c -1.02905,11.90054 4.87108,9.60694 -4.64019,30.5346 -3.48162,7.6606 6.90537,7.50552 7.04206,15.95636 l 0.12901,7.97451 -1.42762,11.81891 c -5.69639,47.15775 -23.86131,93.26324 -52.24993,132.61839 -6.30997,8.74746 -7.17228,9.68234 -8.65982,9.38817 -0.90862,-0.17968 -11.79668,11.63833 -13.59188,11.30023 -15.37874,-2.89638 -8.82009,8.85092 -24.64461,22.72923 -4.25719,3.73359 -9.08993,12.62063 -14.48202,16.73969 -1.49417,1.14142 -5.35065,6.95868 -14.8227,13.39156 -21.33494,14.48965 -40.32563,21.8527 -63.77484,29.66417 -10.18574,3.39309 -12.48062,2.23418 -13.77367,2.8245 -10.58429,4.83197 -11.38082,-3.05259 -19.89378,-5.93837 -6.98121,-2.36654 -20.86002,-2.12372 -27.73653,0.48416 -10.65783,4.04202 -2.09264,9.61575 -19.27482,10.16791 l -8.71385,4.57932 -5.61437,2.93831 c -56.27805,29.45347 -128.89855,-23.44978 -179.3892,-65.02359 -10.40406,-8.56665 -25.4443,-23.12588 -33.81812,-32.73643 l 2e-5,-4e-5 z"
       id="path4156-4"
       inkscape:connector-curvature="0"
       sodipodi:nodetypes="csscsscssssssssscsssscssssssscssscsssssssssssccssccc" />
    <path
       style="opacity:1;fill:#f1fbbb;fill-opacity:1;stroke:#000000;stroke-width:7.37198782;stroke-linecap:round;stroke-linejoin:miter;stroke-miterlimit:4;stroke-dasharray:none;stroke-opacity:1"
       d="m 321.01866,1001.8885 c -28.31389,-4.49778 -54.85767,-12.10963 -79.70418,-22.8565 -14.9099,-6.44899 -45.45224,-22.53443 -52.21561,-27.49992 -16.90761,-12.41308 -38.76788,-28.058 -37.64023,-39.55996 -5.54447,-11.40269 -37.9253,-13.14326 -37.29422,-41.24903 C 93.533344,858.82886 93.322181,822.5017 81.289059,788.99189 74.277826,769.46702 67.276371,765.08538 67.12004,758.5986 c -0.07714,-3.20099 -5.825635,-19.2383 -4.870735,-24.57329 1.329275,-7.42661 -1.107607,-19.03609 -1.947586,-36.85994 -1.88852,-40.07329 -1.446296,-51.11486 2.69355,-67.25323 2.813253,-10.9669 3.84801,-18.67174 4.516044,-33.62661 0.797261,-17.8478 1.203123,-20.22779 5.07272,-29.74662 9.941868,-24.45601 21.535858,-57.44429 36.924317,-78.05255 11.9866,-16.05248 32.02634,-23.80527 40.89246,-26.70708 14.77251,-25.53709 31.51938,-39.23641 50.48718,-58.65538 26.45598,-26.01346 68.95973,-24.41219 142.28977,-30.11071 18.15479,-1.41082 21.92558,-1.34846 31.87249,0.5271 6.2049,1.16997 16.74481,2.46878 23.42202,2.88624 32.99863,2.06309 58.01107,8.96186 119.73775,33.02529 28.69251,11.18544 60.84597,37.5835 69.85397,57.35028 4.59323,10.07915 5.87744,11.14362 13.44405,11.14362 5.69939,0 10.81579,4.77393 23.18792,21.63586 26.42186,36.01027 44.9453,78.866 53.97072,124.86639 2.89961,14.77864 3.23409,18.95051 2.46009,30.68413 -0.82267,12.47116 -1.19899,13.92686 -4.60891,17.82831 -4.22784,4.83728 -4.48877,7.35052 -1.70735,16.44497 2.31609,7.57293 3.8539,29.30641 3.42318,48.3791 -0.45648,20.21428 -6.50711,41.2653 -20.35724,70.82581 -7.11091,15.17689 -7.30939,15.4385 -24.3672,32.11485 -17.34354,16.95569 -24.06636,26.1349 -26.04883,35.56661 -0.67066,3.19066 -3.20078,6.62607 -8.57266,11.63998 -6.72522,6.27707 -8.13999,8.51375 -12.03431,19.0257 -5.67005,15.30514 -9.76557,22.18811 -19.20975,32.28396 -23.60255,25.2312 -64.16286,40.40306 -132.81189,49.67918 -29.15319,3.93929 -92.95656,16.28103 -113.81315,12.96793 z m 33.62661,-20.12655 c 3.91233,-1.03603 12.35132,-4.48594 18.75331,-7.66646 6.40199,-3.18052 13.66486,-6.12966 16.1397,-6.55361 2.74086,-0.46953 6.42991,-2.65609 9.43773,-5.59388 l 4.93801,-4.82305 12.64554,0 c 11.63044,0 13.00118,0.27057 17.07557,3.37056 6.26,4.76293 9.4198,5.45587 17.0964,3.74924 22.89711,-5.09038 56.97542,-19.29726 75.39183,-31.43004 12.09096,-7.96557 36.57326,-34.078 43.8999,-46.82298 4.39397,-7.64346 5.55218,-8.63715 9.10057,-7.80789 5.81067,1.35796 21.59435,-13.09975 33.01314,-30.23978 26.32775,-39.51891 45.18647,-93.20292 47.32365,-134.71344 l 0.77098,-14.9747 -3.90221,-4.36734 -3.90221,-4.36733 2.99786,-7.96462 c 5.28427,-14.03901 3.52363,-44.7934 -4.01825,-70.18964 -1.66503,-5.60677 -4.38803,-9.23571 -16.66791,-22.21326 -16.55251,-17.49293 -21.03302,-24.9501 -31.07201,-51.71477 -8.89825,-23.7234 -14.83994,-35.179 -26.49714,-51.08659 -11.2952,-15.4136 -18.23158,-21.91126 -45.33807,-42.47051 -38.05541,-28.86357 -65.91417,-42.38494 -95.38319,-46.29461 -17.83088,-2.36564 -40.75333,1.22298 -44.46033,6.96048 -0.50945,0.78851 -2.51007,0.63968 -5.38742,-0.40078 -3.98398,-1.44062 -5.02591,-1.36095 -8.0414,0.61487 -3.96759,2.59967 -6.89594,2.1537 -16.88373,-2.57128 -5.50902,-2.60619 -8.62854,-3.13803 -18.40611,-3.13803 -21.25204,0 -56.14201,8.45107 -85.62405,20.73991 l -16.16664,6.73866 -31.68662,31.91059 c -23.75869,23.92663 -34.43712,33.72564 -42.67993,39.16505 -6.04632,3.98997 -16.23131,12.15009 -22.6333,18.13362 -6.40199,5.98352 -12.64213,11.25198 -13.86699,11.70769 -3.1165,1.15949 -8.65068,10.27064 -19.03061,31.33089 -10.48158,21.26653 -17.880707,41.93756 -22.69525,63.40407 -4.465171,19.90875 -4.726602,27.97204 -1.035477,31.93713 2.239835,2.40608 2.71189,4.41549 2.552675,10.86599 -0.120034,4.86325 0.453036,8.69526 1.486618,9.94065 1.246718,1.5022 1.324058,2.69536 0.298876,4.61094 -0.760695,1.42137 -1.383081,5.26204 -1.383081,8.53482 0,3.27279 -0.815132,7.23954 -1.811405,8.81501 -4.73735,7.4915 -6.075999,30.36855 -2.726021,46.58683 3.322208,16.08384 14.726525,48.69474 23.154505,66.21083 25.1269,52.22188 56.89269,87.86447 115.81627,129.95086 52.31477,37.36603 94.95886,51.24805 129.40622,42.1259 z"
       id="path4695"
       inkscape:connector-curvature="0"
       sodipodi:nodetypes="sssccssssssssccsssssssssssssssssssssssscsssssssscccssssssssssssscssssssssssssssss" />
  </g>
  <g
     inkscape:groupmode="layer"
     id="layer2"
     inkscape:label="Layer 2"
     style="display:none">
    <path
       transform="translate(0,-308.26772)"
       style="opacity:1;fill:#fffbff;fill-opacity:1;stroke:#ffffff;stroke-width:7.37198782;stroke-linecap:round;stroke-linejoin:miter;stroke-miterlimit:4;stroke-dasharray:none;stroke-opacity:1"
       d="m 1.5658416,680.35206 0,-366.65941 370.5394084,0 370.5394,0 0,366.65941 0,366.65944 -370.5394,0 -370.5394084,0 0,-366.65944 z M 365.83766,1002.4419 c 40.94776,-5.42626 109.32392,-16.73902 124.6074,-20.61622 57.64288,-14.62336 86.51479,-35.39726 100.89647,-72.59696 3.51438,-9.0904 5.96514,-13.1025 11.83897,-19.3817 4.9046,-5.243 8.33601,-10.4008 10.15636,-15.2661 3.38161,-9.0382 9.27371,-16.6085 27.89746,-35.84326 15.6893,-16.20406 19.27922,-22.00111 29.60462,-47.80577 6.94533,-17.35739 10.72389,-31.54482 12.07064,-45.32178 1.35682,-13.88015 -0.2591,-48.56494 -2.74894,-59.00421 -1.88418,-7.89981 -1.8711,-8.01564 1.4287,-12.65337 5.54521,-7.79356 6.9162,-26.51218 3.40995,-46.55756 -9.05132,-51.74698 -31.15852,-101.23294 -63.18698,-141.44111 -7.30918,-9.17589 -12.86504,-13.17211 -18.35342,-13.20126 -5.10935,-0.0272 -5.92463,-0.77629 -10.72712,-9.85677 -9.17378,-17.3457 -27.88299,-34.93985 -52.49346,-49.36487 -11.25243,-6.59544 -35.20883,-16.14034 -67.25322,-26.79558 -28.78753,-9.57228 -42.64261,-12.73584 -67.30195,-15.36721 -9.93185,-1.05981 -23.67092,-2.64937 -30.53127,-3.53235 -10.83872,-1.39504 -18.04202,-1.22455 -54.96658,1.30099 -72.21969,4.93961 -91.67684,8.71329 -110.9765,21.52368 -13.12802,8.71388 -58.90985,58.43131 -58.90985,63.974 0,0.57092 -6.24887,4.09021 -13.8864,7.8206 -27.38017,13.37333 -39.357954,30.91419 -62.941028,92.17385 -7.10726,18.46191 -7.35056,19.51748 -8.62975,37.44037 -0.72397,10.14357 -2.72295,25.42685 -4.44219,33.96284 -4.37409,21.71726 -4.94957,32.52533 -3.27104,61.43324 3.62413,62.41552 4.91146,70.79916 12.8463,83.66095 5.64884,9.15635 10.78183,23.73056 16.8795,47.92633 2.8247,11.20853 6.32687,23.82415 7.78259,28.03475 3.001314,8.6811 9.299308,19.1011 13.580308,22.4685 1.62169,1.2756 3.30231,4.4998 3.84027,7.3674 2.06997,11.0339 7.56416,17.0408 24.98479,27.3164 9.71168,5.7285 11.96332,7.6306 11.96332,10.1064 0,5.4621 8.34795,15.3904 22.74499,27.051 28.96274,23.4577 74.60542,45.54616 116.28812,56.27682 32.90102,8.47006 44.49809,9.18076 77.79894,4.76796 z"
       id="path4699"
       inkscape:connector-curvature="0" />
  </g>
  <g
     inkscape:groupmode="layer"
     id="layer3"
     inkscape:label="Layer 3">
    <path
       style="opacity:1;fill:#f1bfc9;fill-opacity:1;fill-rule:evenodd;stroke:#ffffff;stroke-width:4.24902391;stroke-linecap:round;stroke-linejoin:miter;stroke-miterlimit:4;stroke-dasharray:none;stroke-opacity:1"
       d="M 316.01025,668.53008 C 283.69814,662.58606 243.46556,639.90047 195.37532,600.50876 147.41539,561.22378 118.03388,517.44999 98.657378,456.41435 92.512584,437.05837 92.029236,434.8137 90.936142,420.55697 c -0.828082,-10.80032 -0.702923,-13.27222 1.041892,-20.57749 1.090667,-4.56646 2.663004,-9.27343 3.494083,-10.45996 0.914492,-1.30563 1.511052,-4.45135 1.511052,-7.96795 0,-3.41259 0.720063,-7.32059 1.744782,-9.46945 1.695969,-3.5565 1.681539,-3.76874 -0.516118,-7.58724 -1.960419,-3.4063 -2.177713,-4.84057 -1.63498,-10.79182 0.600797,-6.58793 0.499697,-7.02126 -2.5189,-10.79628 -1.72965,-2.16309 -3.144819,-4.74402 -3.144819,-5.7354 0,-0.99139 1.117052,-7.41614 2.482337,-14.27723 6.08024,-30.55557 17.534789,-60.92529 32.883409,-87.18459 3.65808,-6.25847 7.08533,-10.94874 8.27667,-11.32686 1.11832,-0.35495 7.25987,-5.60688 13.6479,-11.67096 6.38802,-6.06409 16.02828,-13.94762 21.4228,-17.51896 12.58644,-8.33263 18.84926,-14.07048 47.51492,-43.53212 12.94881,-13.30836 25.01401,-25.1964 26.81156,-26.41786 4.38034,-2.97652 22.05413,-10.57791 35.07874,-15.08717 21.29418,-7.37226 51.58863,-13.704904 65.56224,-13.704904 6.44669,0 8.73737,0.516996 15.29697,3.45245 4.24317,1.898844 9.66273,4.023454 12.04347,4.721344 3.99691,1.17167 4.56851,1.09152 7.4596,-1.04596 2.78626,-2.05997 3.54789,-2.18995 6.91718,-1.18049 5.57515,1.67036 6.98727,1.43615 10.63114,-1.76321 4.32573,-3.798034 13.72922,-5.654908 28.32881,-5.593979 12.52259,0.05226 18.79021,1.121301 33.38519,5.694359 21.32611,6.68214 49.40482,23.55473 80.42796,48.32946 20.39428,16.28664 23.55665,19.23805 28.07915,26.20598 1.95397,3.01054 5.78965,8.24595 8.52372,11.63424 6.2758,7.77748 15.31309,26.03839 22.57515,45.61575 6.51022,17.55054 12.3485,29.80982 17.45699,36.65633 1.97896,2.65223 8.75251,10.08867 15.05234,16.52543 7.18779,7.34399 12.18821,13.37323 13.4247,16.18676 1.08373,2.46596 3.3344,11.31236 5.00147,19.65865 2.64694,13.25208 3.00262,17.03399 2.80674,29.84434 -0.2038,13.32725 -0.47401,15.27811 -2.95365,21.3245 -1.50113,3.66038 -2.72933,7.61615 -2.72933,8.7906 0,1.17445 1.82101,4.23938 4.04669,6.81095 4.88881,5.64858 5.01486,7.46537 1.96528,28.32682 -7.02287,48.04182 -24.03828,90.40242 -51.40566,127.97657 -3.03954,4.17315 -5.92941,7.7471 -6.42192,7.94212 -0.49252,0.19502 -3.71404,2.81273 -7.15894,5.81712 -5.3564,4.67149 -6.85455,5.46254 -10.34538,5.46254 -5.49742,0 -8.0423,2.02981 -11.7476,9.36997 -1.71833,3.40398 -5.4899,8.72036 -8.38129,11.81419 -2.8914,3.09384 -7.5704,8.5843 -10.39778,12.20103 -11.17673,14.29703 -24.1658,23.911 -47.1242,34.87932 -18.02319,8.61054 -34.25158,14.33132 -50.51692,17.80806 l -5.77578,1.23459 -5.35262,-3.66454 c -6.73994,-4.61433 -13.91112,-6.19004 -24.70474,-5.42833 -10.12877,0.7148 -14.78617,2.56652 -19.61726,7.79953 -2.93825,3.1827 -4.43647,4.02324 -7.15922,4.01649 -2.20515,-0.005 -7.80875,2.18338 -15.5834,6.08707 -6.67704,3.35257 -14.87159,6.80668 -18.21011,7.67581 -8.69795,2.26435 -26.58292,2.70312 -36.42021,0.89349 z"
       id="path4869"
       inkscape:connector-curvature="0" />
    <text
       xml:space="preserve"
       style="font-style:normal;font-weight:normal;font-size:145.70980835px;line-height:125%;font-family:sans-serif;letter-spacing:0px;word-spacing:0px;fill:#ffffff;fill-opacity:1;stroke:#000000;stroke-width:5.49077272;stroke-linecap:butt;stroke-linejoin:miter;stroke-miterlimit:4;stroke-dasharray:2.74538626, 2.74538626;stroke-dashoffset:0;stroke-opacity:1"
       x="-124.8205"
       y="640.52612"
       id="text4871"
       sodipodi:linespacing="125%"
       transform="matrix(0.80286371,-0.59726797,0.60756039,0.79356389,0,0)"><tspan
         sodipodi:role="line"
         id="tspan4873"
         x="-124.8205"
         y="640.52612"
         style="stroke:#000000;stroke-width:5.49077272;stroke-miterlimit:4;stroke-dasharray:2.74538626, 2.74538626;stroke-dashoffset:0;stroke-opacity:1">N</tspan></text>
    <text
       xml:space="preserve"
       style="font-style:normal;font-weight:normal;font-size:145.70980835px;line-height:125%;font-family:sans-serif;letter-spacing:0px;word-spacing:0px;fill:#ffffff;fill-opacity:1;stroke:#000000;stroke-width:5.49077272;stroke-linecap:butt;stroke-linejoin:miter;stroke-miterlimit:4;stroke-dasharray:2.74538626, 2.74538626;stroke-dashoffset:0;stroke-opacity:1"
       x="-13.551701"
       y="656.71344"
       id="text4871-4"
       sodipodi:linespacing="125%"
       transform="matrix(0.80286371,-0.59726797,0.60756039,0.79356389,0,0)"><tspan
         sodipodi:role="line"
         id="tspan4873-4"
         x="-13.551701"
         y="656.71344"
         style="stroke:#000000;stroke-width:5.49077272;stroke-miterlimit:4;stroke-dasharray:2.74538626, 2.74538626;stroke-dashoffset:0;stroke-opacity:1">o</tspan></text>
    <text
       xml:space="preserve"
       style="font-style:normal;font-weight:normal;font-size:145.70980835px;line-height:125%;font-family:sans-serif;letter-spacing:0px;word-spacing:0px;fill:#ffffff;fill-opacity:1;stroke:#000000;stroke-width:5.49077272;stroke-linecap:butt;stroke-linejoin:miter;stroke-miterlimit:4;stroke-dasharray:2.74538626, 2.74538626;stroke-dashoffset:0;stroke-opacity:1"
       x="244.37672"
       y="614.1488"
       id="text4871-4-3"
       sodipodi:linespacing="125%"
       transform="matrix(0.93451162,-0.35413588,0.36845122,0.93045199,0,0)"><tspan
         sodipodi:role="line"
         id="tspan4873-4-1"
         x="244.37672"
         y="614.1488"
         style="stroke:#000000;stroke-width:5.49077272;stroke-miterlimit:4;stroke-dasharray:2.74538626, 2.74538626;stroke-dashoffset:0;stroke-opacity:1">m</tspan></text>
    <text
       xml:space="preserve"
       style="font-style:normal;font-weight:normal;font-size:145.70980835px;line-height:125%;font-family:sans-serif;letter-spacing:0px;word-spacing:0px;fill:#ffffff;fill-opacity:1;stroke:#000000;stroke-width:5.49077272;stroke-linecap:butt;stroke-linejoin:miter;stroke-miterlimit:4;stroke-dasharray:2.74538626, 2.74538626;stroke-dashoffset:0;stroke-opacity:1"
       x="-145.56845"
       y="449.15735"
       id="text4871-1"
       sodipodi:linespacing="125%"
       transform="matrix(0.80286371,-0.59726797,0.60756039,0.79356389,0,0)"><tspan
         sodipodi:role="line"
         id="tspan4873-1"
         x="-145.56845"
         y="449.15735"
         style="stroke:#000000;stroke-width:5.49077272;stroke-miterlimit:4;stroke-dasharray:2.74538626, 2.74538626;stroke-dashoffset:0;stroke-opacity:1">N</tspan></text>
    <text
       xml:space="preserve"
       style="font-style:normal;font-weight:normal;font-size:145.70980835px;line-height:125%;font-family:sans-serif;letter-spacing:0px;word-spacing:0px;fill:#ffffff;fill-opacity:1;stroke:#000000;stroke-width:5.49077272;stroke-linecap:butt;stroke-linejoin:miter;stroke-miterlimit:4;stroke-dasharray:2.74538626, 2.74538626;stroke-dashoffset:0;stroke-opacity:1"
       x="-24.127048"
       y="458.07312"
       id="text4871-4-32"
       sodipodi:linespacing="125%"
       transform="matrix(0.80286371,-0.59726797,0.60756039,0.79356389,0,0)"><tspan
         sodipodi:role="line"
         id="tspan4873-4-3"
         x="-24.127048"
         y="458.07312"
         style="stroke:#000000;stroke-width:5.49077272;stroke-miterlimit:4;stroke-dasharray:2.74538626, 2.74538626;stroke-dashoffset:0;stroke-opacity:1">u</tspan></text>
    <text
       xml:space="preserve"
       style="font-style:normal;font-weight:normal;font-size:145.70980835px;line-height:125%;font-family:sans-serif;letter-spacing:0px;word-spacing:0px;fill:#ffffff;fill-opacity:1;stroke:#000000;stroke-width:5.49077272;stroke-linecap:butt;stroke-linejoin:miter;stroke-miterlimit:4;stroke-dasharray:2.74538626, 2.74538626;stroke-dashoffset:0;stroke-opacity:1"
       x="197.94083"
       y="419.67081"
       id="text4871-4-3-1"
       sodipodi:linespacing="125%"
       transform="matrix(0.93451162,-0.35413588,0.36845122,0.93045199,0,0)"><tspan
         sodipodi:role="line"
         id="tspan4873-4-1-1"
         x="197.94083"
         y="419.67081"
         style="stroke:#000000;stroke-width:5.49077272;stroke-miterlimit:4;stroke-dasharray:2.74538626, 2.74538626;stroke-dashoffset:0;stroke-opacity:1">m</tspan></text>
    <ellipse
       style="opacity:1;fill:#ffffff;fill-opacity:1;fill-rule:evenodd;stroke:none;stroke-width:5.4000001;stroke-linecap:round;stroke-linejoin:miter;stroke-miterlimit:4;stroke-dasharray:2.7, 2.70000000000000018;stroke-dashoffset:0;stroke-opacity:1"
       id="path4991"
       cx="545"
       cy="134.09448"
       rx="105"
       ry="100" />
    <ellipse
       style="opacity:1;fill:#ffffff;fill-opacity:1;fill-rule:evenodd;stroke:none;stroke-width:5.4000001;stroke-linecap:round;stroke-linejoin:miter;stroke-miterlimit:4;stroke-dasharray:2.7, 2.70000000000000018;stroke-dashoffset:0;stroke-opacity:1"
       id="path4993"
       cx="630"
       cy="229.09448"
       rx="70"
       ry="55" />
    <ellipse
       style="opacity:1;fill:#f1bfc9;fill-opacity:1;fill-rule:evenodd;stroke:#000000;stroke-width:0.94104183;stroke-linecap:round;stroke-linejoin:miter;stroke-miterlimit:4;stroke-dasharray:0.47052092, 0.47052092;stroke-dashoffset:0;stroke-opacity:1"
       id="path5006"
       cx="487.80157"
       cy="153.53029"
       rx="8.3310471"
       ry="9.9652805" />
    <ellipse
       style="opacity:1;fill:#f1bfc9;fill-opacity:1;fill-rule:evenodd;stroke:#000000;stroke-width:0.94104183;stroke-linecap:round;stroke-linejoin:miter;stroke-miterlimit:4;stroke-dasharray:0.47052092, 0.47052092;stroke-dashoffset:0;stroke-opacity:1"
       id="path5006-1"
       cx="537.80157"
       cy="173.53029"
       rx="8.3310471"
       ry="9.9652805" />
    <ellipse
       style="opacity:1;fill:#f1bfc9;fill-opacity:1;fill-rule:evenodd;stroke:#000000;stroke-width:0.5960685;stroke-linecap:round;stroke-linejoin:miter;stroke-miterlimit:4;stroke-dasharray:0.29803426, 0.29803426;stroke-dashoffset:0;stroke-opacity:1"
       id="path5006-5"
       cx="544.76654"
       cy="129.4836"
       rx="5.4685163"
       ry="6.0910773" />
    <ellipse
       style="opacity:1;fill:#f1bfc9;fill-opacity:1;fill-rule:evenodd;stroke:#000000;stroke-width:0.54099369;stroke-linecap:round;stroke-linejoin:miter;stroke-miterlimit:4;stroke-dasharray:0.27049685, 0.27049685;stroke-dashoffset:0;stroke-opacity:1"
       id="path5006-7"
       cx="513.75488"
       cy="109.4836"
       rx="4.4843812"
       ry="6.1186147" />
    <ellipse
       style="opacity:1;fill:#f1bfc9;fill-opacity:1;fill-rule:evenodd;stroke:#000000;stroke-width:0.7030465;stroke-linecap:round;stroke-linejoin:miter;stroke-miterlimit:4;stroke-dasharray:0.35152326, 0.35152326;stroke-dashoffset:0;stroke-opacity:1"
       id="path5006-5-3"
       cx="-6.0334115"
       cy="553.80774"
       rx="7.8043709"
       ry="5.9374709"
       transform="matrix(0.25829641,-0.96606572,0.98654219,0.16350692,0,0)" />
    <ellipse
       style="opacity:1;fill:#f1bfc9;fill-opacity:1;fill-rule:evenodd;stroke:#000000;stroke-width:0.63808727;stroke-linecap:round;stroke-linejoin:miter;stroke-miterlimit:4;stroke-dasharray:0.31904364, 0.31904364;stroke-dashoffset:0;stroke-opacity:1"
       id="path5006-7-4"
       cx="-50.29158"
       cy="534.31213"
       rx="6.3998666"
       ry="5.9643135"
       transform="matrix(0.25829641,-0.96606572,0.98654219,0.16350692,0,0)" />
  </g>
</svg>
